<svg class="icon-linkedin" xmlns="http://www.w3.org/2000/svg" viewBox="0 0 34 34">
  <title>Linkedin</title>
  <path d="M17 1C8.165 1 1 8.164 1 17c0 8.837 7.164 16 16 16s16-7.163 16-16c0-8.836-7.164-16-16-16zm-5.333 26H7V13.667h4.667V27zM9.334 11.667C8.044 11.667 7 10.62 7 9.333S8.044 7 9.334 7c1.287 0 2.333 1.045 2.333 2.333 0 1.288-1.046 2.334-2.333 2.334zM27 27h-4v-6.497c0-1.55-.172-3.542-2.296-3.542-2.156 0-2.486 1.69-2.486 3.43V27h-3.885V13.667h3.717v1.8h.057c.553-1.052 1.906-1.8 3.922-1.8 4.193 0 4.97 2.408 4.97 6.006V27z"/>
</svg>
