<svg class="icon-twitter" xmlns="http://www.w3.org/2000/svg" viewBox="0 0 34 34">
  <title>Twitter</title>
  <path d="M17 1C8.165 1 1 8.163 1 17c0 8.836 7.164 16 16 16s16-7.164 16-16c0-8.837-7.164-16-16-16zm7.954 11.985c.008.173.01.348.01.523C24.964 18.846 20.838 25 13.29 25c-2.316 0-4.473-.668-6.29-1.814.322.037.647.056.98.056 1.923 0 3.69-.646 5.096-1.73-1.795-.032-3.31-1.2-3.833-2.804.25.047.508.072.772.072.375 0 .737-.05 1.082-.142-1.878-.372-3.292-2.005-3.292-3.96v-.052c.553.303 1.187.484 1.86.505-1.1-.723-1.827-1.96-1.827-3.36 0-.74.203-1.435.556-2.03 2.024 2.443 5.047 4.05 8.457 4.22-.068-.297-.104-.605-.104-.92 0-2.232 1.837-4.04 4.103-4.04 1.18 0 2.246.49 2.994 1.276.935-.18 1.814-.518 2.607-.98-.306.943-.956 1.734-1.804 2.234.83-.097 1.62-.314 2.357-.636-.552.81-1.25 1.522-2.05 2.09z"/>
</svg>
